<svg width="144" height="145" viewBox="0 0 144 145" fill="none" xmlns="http://www.w3.org/2000/svg">
<path fill-rule="evenodd" clip-rule="evenodd" d="M71.9836 47.0057C71.9825 42.9449 72.9329 38.9403 74.7585 35.3129C76.5842 31.6854 79.2343 28.536 82.4966 26.1169C85.7589 23.6978 89.5427 22.0763 93.5446 21.3824C97.5466 20.6885 101.655 20.9415 105.542 22.121C106.156 22.3071 106.712 22.6491 107.155 23.1137C107.597 23.5783 107.912 24.1497 108.068 24.7721C108.224 25.3945 108.217 26.0468 108.046 26.6653C107.875 27.2838 107.546 27.8475 107.092 28.3013L90.6475 44.7376C90.9596 47.0899 92.0146 49.3629 93.8225 51.1705C95.6305 52.978 97.904 54.0328 100.262 54.3398L116.697 37.9036C117.151 37.4499 117.715 37.1216 118.333 36.9506C118.952 36.7796 119.604 36.7718 120.227 36.9279C120.849 37.084 121.421 37.3987 121.886 37.8414C122.35 38.284 122.692 38.8395 122.878 39.4536C124.113 43.5186 124.332 47.8241 123.517 51.9935C122.702 56.1628 120.878 60.069 118.203 63.3702C115.529 66.6714 112.086 69.2672 108.176 70.9303C104.266 72.5935 100.008 73.2733 95.7741 72.9105C90.7317 72.4846 86.5115 73.4057 84.337 76.0502L48.9211 119.06C47.471 120.812 45.6709 122.241 43.6362 123.258C41.6014 124.274 39.3769 124.854 37.1049 124.961C34.8329 125.068 32.5636 124.7 30.4423 123.879C28.321 123.059 26.3944 121.805 24.7859 120.197C23.1774 118.589 21.9225 116.663 21.1015 114.543C20.2804 112.422 19.9114 110.153 20.0179 107.882C20.1245 105.61 20.7044 103.386 21.7204 101.351C22.7364 99.317 24.1662 97.517 25.9181 96.0668L68.9323 60.6539C71.5724 58.4749 72.4987 54.2606 72.0727 49.2193C72.0121 48.483 71.9824 47.7445 71.9836 47.0057ZM32.9369 108.289C32.9369 107.304 33.3283 106.359 34.025 105.663C34.7217 104.966 35.6666 104.575 36.6519 104.575H36.6915C37.6768 104.575 38.6217 104.966 39.3184 105.663C40.015 106.359 40.4064 107.304 40.4064 108.289V108.328C40.4064 109.313 40.015 110.258 39.3184 110.955C38.6217 111.651 37.6768 112.043 36.6915 112.043H36.6519C35.6666 112.043 34.7217 111.651 34.025 110.955C33.3283 110.258 32.9369 109.313 32.9369 108.328V108.289Z" fill="#1D293D" style="fill:#1D293D;fill:color(display-p3 0.1137 0.1608 0.2392);fill-opacity:1;"/>
<path d="M62.4535 56.3653L51.5513 45.4705V37.7154C51.5513 37.0742 51.3852 36.4439 51.0692 35.8859C50.7533 35.3279 50.2982 34.8612 49.7483 34.5312L31.1735 23.3888C30.4631 22.963 29.6307 22.7868 28.8087 22.8882C27.9866 22.9896 27.222 23.3627 26.6363 23.9484L22.9214 27.6625C22.3356 28.248 21.9624 29.0124 21.861 29.8343C21.7596 30.6562 21.9358 31.4884 22.3617 32.1987L33.5065 50.7693C33.8366 51.3191 34.3034 51.7741 34.8616 52.09C35.4197 52.4058 36.0501 52.5719 36.6915 52.5719H44.4384L54.6521 62.7833L62.4535 56.3603V56.3653Z" fill="#1D293D" style="fill:#1D293D;fill:color(display-p3 0.1137 0.1608 0.2392);fill-opacity:1;"/>
<path fill-rule="evenodd" clip-rule="evenodd" d="M74.7376 99.3947L95.4571 120.105C97.0095 121.657 98.8524 122.888 100.881 123.728C102.909 124.568 105.083 125 107.278 125C109.473 125 111.647 124.568 113.676 123.728C115.704 122.888 117.547 121.657 119.099 120.105C120.651 118.553 121.883 116.71 122.723 114.682C123.563 112.655 123.996 110.481 123.996 108.286C123.996 106.091 123.563 103.918 122.723 101.89C121.883 99.8625 120.651 98.02 119.099 96.468L102.724 80.101C100.213 80.4568 97.6712 80.5282 95.1451 80.314C93.1935 80.1456 91.7669 80.2843 90.8506 80.522C90.5606 80.5833 90.2817 80.6886 90.0234 80.834L74.7376 99.3947ZM91.6481 92.6597C92.3446 91.9642 93.2888 91.5735 94.2733 91.5735C95.2578 91.5735 96.202 91.9642 96.8985 92.6597L106.186 101.95C106.551 102.29 106.844 102.7 107.047 103.156C107.25 103.611 107.359 104.103 107.368 104.602C107.377 105.1 107.285 105.596 107.098 106.058C106.911 106.521 106.633 106.941 106.28 107.294C105.927 107.646 105.507 107.924 105.045 108.111C104.582 108.298 104.087 108.39 103.588 108.381C103.089 108.372 102.597 108.263 102.141 108.06C101.686 107.857 101.276 107.564 100.935 107.199L91.6481 97.914C90.9524 97.2176 90.5616 96.2736 90.5616 95.2893C90.5616 94.3051 90.9524 93.3611 91.6481 92.6647V92.6597Z" fill="#1D293D" style="fill:#1D293D;fill:color(display-p3 0.1137 0.1608 0.2392);fill-opacity:1;"/>
</svg>
